# xmcd
#
# Track frame offsets: 
#        150
#        13298
#        32084
#        50412
#        65821
#        80112
#        95714
#        111284
#        129306
#        149452
#        164197
#        177009
#
# Disc length: 2567 seconds
#
# Revision: 7
# Processed by: cddbd v1.5.2PL0 Copyright (c) Steve Scherf et al.
# Submitted via: ExactAudioCopyFreeDBPlugin 1.0
#
DISCID=b40a050c
DTITLE=Various Artist - Girls' Night Out
DYEAR=1999
DGENRE=Country
TTITLE0=Sara Evans - Cryin' Game
TTITLE1=Sara Evans - Almost New
TTITLE2=Sara Evans - Three Cords And The Truth
TTITLE3=Martina McBride - Independence Day
TTITLE4=Martina McBride - 'Til I Can Make It On My Own
TTITLE5=Martina McBride - Happy Girl
TTITLE6=Mindy McCready - Ten Thousand Angels
TTITLE7=Mindy McCready - Over And Over
TTITLE8=Mindy McCready - Long Long Time
TTITLE9=Lorrie Morgan - The Heart That Jack Broke
TTITLE10=Lorrie Morgan - Go Away
TTITLE11=Lorrie Morgan - Good As I Was To You
EXTD=
EXTT0=
EXTT1=
EXTT2=
EXTT3=
EXTT4=
EXTT5=
EXTT6=
EXTT7=
EXTT8=
EXTT9=
EXTT10=
EXTT11=
PLAYORDER=
